<svg xmlns="http://www.w3.org/2000/svg" viewBox="0 0 100 100" width="100" height="100">
  <defs>
    <linearGradient id="g" x1="0%" y1="0%" x2="100%" y2="100%">
      <stop offset="0%" style="stop-color:#4f46e5"/>
      <stop offset="100%" style="stop-color:#a855f7"/>
    </linearGradient>
  </defs>
  <!-- Full background circle -->
  <circle cx="50" cy="50" r="50" fill="#0a0a0f"/>
  <!-- Gradient ring -->
  <circle cx="50" cy="50" r="46" fill="none" stroke="url(#g)" stroke-width="4"/>
  <!-- Robot face body -->
  <rect x="28" y="25" width="44" height="38" rx="12" fill="url(#g)"/>
  <!-- Left eye -->
  <rect x="34" y="33" width="10" height="14" rx="5" fill="#00cfff" opacity="0.95"/>
  <!-- Right eye -->
  <rect x="56" y="33" width="10" height="14" rx="5" fill="#cc44ff" opacity="0.95"/>
  <!-- Smile -->
  <path d="M36 54 Q50 64 64 54" stroke="white" stroke-width="3" fill="none" stroke-linecap="round"/>
  <!-- Chat bubble tail -->
  <path d="M42 63 L38 75 L54 63" fill="url(#g)"/>
  <!-- Orbit ring -->
  <ellipse cx="50" cy="52" rx="38" ry="10" fill="none" stroke="url(#g)" stroke-width="3" transform="rotate(-20 50 52)"/>
  <!-- Sparkle -->
  <path d="M76 18 L78 24 L84 26 L78 28 L76 34 L74 28 L68 26 L74 24 Z" fill="#ff44ff"/>
</svg>